<svg aria-hidden="true" style="position:absolute;width:0;height:0;overflow:hidden" xmlns="http://www.w3.org/2000/svg"><defs><symbol id="icon-twitter" viewBox="0 0 38 32"><path fill="#1c2752" style="fill:var(--color1, #1c2752)" d="M36.662 5.005a15.124 15.124 0 0 1-4.236 1.146 7.302 7.302 0 0 0 3.245-4.015 14.802 14.802 0 0 1-4.686 1.76 7.427 7.427 0 0 0-5.386-2.299c-4.076 0-7.375 3.251-7.375 7.258a6.988 6.988 0 0 0 .19 1.655A21.03 21.03 0 0 1 3.209 2.923a7.171 7.171 0 0 0-1.003 3.648c0 2.517 1.313 4.741 3.296 6.044a7.31 7.31 0 0 1-3.354-.906v.09c0 3.52 2.547 6.449 5.917 7.115a7.543 7.543 0 0 1-1.943.255 7.01 7.01 0 0 1-1.386-.135c.937 2.884 3.664 4.981 6.895 5.041a14.95 14.95 0 0 1-9.162 3.108 15.225 15.225 0 0 1-1.76-.105 20.877 20.877 0 0 0 11.29 3.281c13.584 0 21.005-11.063 21.005-20.657 0-.315-.008-.629-.023-.936a14.86 14.86 0 0 0 3.68-3.76z"/></symbol><symbol id="icon-pinterest" viewBox="0 0 32 32"><path fill="#1c2752" style="fill:var(--color1, #1c2752)" d="M15.824 0C7.401 0 .571 6.827.571 15.246c0 6.242 3.759 11.605 9.132 13.967-.041-1.062-.007-2.342.266-3.499l1.961-8.311s-.49-.973-.49-2.41c0-2.26 1.307-3.948 2.942-3.948 1.389 0 2.056 1.041 2.056 2.287 0 1.395-.892 3.478-1.348 5.411-.381 1.62.81 2.934 2.411 2.934 2.887 0 4.835-3.709 4.835-8.106 0-3.342-2.254-5.84-6.346-5.84-4.624 0-7.511 3.451-7.511 7.303 0 1.327.395 2.266 1.008 2.988.279.333.32.47.218.851-.075.279-.238.953-.313 1.225-.102.388-.415.524-.763.381-2.131-.871-3.126-3.199-3.126-5.826 0-4.329 3.657-9.522 10.902-9.522 5.822 0 9.656 4.213 9.656 8.733 0 5.983-3.33 10.448-8.233 10.448-1.648 0-3.194-.892-3.725-1.899 0 0-.885 3.512-1.076 4.193-.32 1.178-.953 2.348-1.532 3.267 1.404.414 2.86.625 4.324.626 8.423 0 15.253-6.827 15.253-15.246S24.249 0 15.826 0z"/></symbol><symbol id="icon-facebook" viewBox="0 0 34 32"><path fill="#1c2752" style="fill:var(--color1, #1c2752)" d="M32.915 16.902c0-8.426-7.095-15.259-15.846-15.259S1.223 8.475 1.223 16.902c0 7.616 5.794 13.928 13.37 15.074V21.314h-4.024v-4.412h4.024V13.54c0-3.824 2.366-5.937 5.985-5.937 1.734 0 3.548.298 3.548.298v3.755h-1.999c-1.967 0-2.583 1.176-2.583 2.384v2.861h4.394l-.702 4.412h-3.692v10.663c7.576-1.145 13.37-7.458 13.37-15.075z"/></symbol><symbol id="icon-phone" viewBox="0 0 32 32"><path fill="none" stroke="#1c2752" style="stroke:var(--color1, #1c2752)" stroke-miterlimit="10" stroke-width="2.462" d="M29.847 24.377c-1.128-1.136-3.859-2.794-5.183-3.462-1.726-.869-1.868-.94-3.224.067-.905.672-1.506 1.273-2.565 1.047s-3.359-1.499-5.374-3.507c-2.014-2.008-3.361-4.375-3.588-5.43s.384-1.649 1.05-2.556c.939-1.278.868-1.491.065-3.216-.626-1.342-2.332-4.047-3.472-5.169-1.22-1.205-1.22-.992-2.006-.665-.64.269-1.254.597-1.834.978-1.136.755-1.767 1.382-2.208 2.324s-.639 3.151 1.638 7.288c2.277 4.137 3.875 6.252 7.182 9.549s5.85 5.07 9.567 7.155c4.599 2.575 6.362 2.073 7.307 1.633s1.575-1.065 2.331-2.201c.382-.579.71-1.192.98-1.832.327-.783.54-.783-.667-2.002z"/></symbol><symbol id="icon-envelope" viewBox="0 0 41 32"><path fill="none" stroke="#1c2752" style="stroke:var(--color1, #1c2752)" stroke-linejoin="round" stroke-linecap="round" stroke-width="2.909" d="M35.636 1.455H5.091a3.636 3.636 0 0 0-3.636 3.636v21.818a3.636 3.636 0 0 0 3.636 3.636h30.545a3.636 3.636 0 0 0 3.636-3.636V5.091a3.636 3.636 0 0 0-3.636-3.636z"/><path fill="none" stroke="#1c2752" style="stroke:var(--color1, #1c2752)" stroke-linejoin="round" stroke-linecap="round" stroke-width="2.909" d="m7.273 7.273 13.091 10.182L33.455 7.273"/></symbol><symbol id="icon-screw" viewBox="0 0 33 32"><path fill="#ffb342" style="fill:var(--color2, #ffb342)" d="M33.103 15.529c-.011-.194-.091-.378-.228-.519s-.32-.231-.517-.253l-2.04-.322c-.092-.015-.176-.058-.241-.123s-.106-.149-.117-.239a11.31 11.31 0 0 0-.135-.739.423.423 0 0 1 .209-.454l1.813-.982c.18-.089.32-.24.393-.424s.075-.387.005-.572l-.314-.846c-.069-.185-.205-.34-.384-.433s-.385-.119-.582-.073l-2.033.388c-.091.016-.185.003-.268-.036s-.151-.103-.195-.182a13.842 13.842 0 0 0-.382-.654.427.427 0 0 1 .036-.505l1.353-1.525a.794.794 0 0 0 .031-1.069l-.59-.692a.83.83 0 0 0-1.081-.156l-1.78 1.043a.431.431 0 0 1-.508-.048 21.338 21.338 0 0 0-.586-.481.423.423 0 0 1-.137-.482l.737-1.895c.08-.181.09-.384.026-.571s-.195-.345-.369-.444l-.803-.457c-.175-.098-.381-.13-.578-.09s-.373.151-.492.31l-1.301 1.595c-.047.069-.117.121-.198.145s-.169.02-.247-.011c-.049-.019-.459-.183-.778-.287-.087-.028-.164-.082-.217-.155s-.082-.161-.08-.251l.031-2.025c.011-.198-.052-.393-.178-.548s-.305-.261-.504-.297l-.911-.155c-.198-.033-.403.005-.575.107s-.3.262-.36.45l-.676 1.927a.438.438 0 0 1-.427.283h-.776c-.092.002-.182-.025-.258-.076s-.133-.124-.164-.209L15.054.581c-.059-.189-.187-.35-.359-.454s-.378-.142-.577-.109l-.913.155c-.198.036-.377.14-.502.294s-.189.347-.179.544l.032 2.032a.419.419 0 0 1-.307.408c-.182.069-.578.217-.758.282-.159.056-.333-.005-.473-.163L9.724 2.017c-.119-.16-.294-.271-.491-.313s-.404-.01-.58.088l-.801.453c-.177.099-.309.258-.373.447s-.053.394.029.576l.736 1.89a.423.423 0 0 1-.135.484c-.193.155-.391.311-.589.483a.432.432 0 0 1-.505.05L5.256 5.112a.844.844 0 0 0-1.083.155l-.588.69a.782.782 0 0 0 .03 1.067l1.359 1.524c.06.069.096.154.103.245s-.017.18-.067.256a9.115 9.115 0 0 0-.384.655c-.044.08-.113.144-.197.183s-.178.052-.27.036l-2.03-.383c-.197-.046-.404-.02-.582.073s-.315.247-.384.433l-.318.845c-.07.185-.069.389.005.573s.213.335.393.425l1.813.982a.419.419 0 0 1 .211.459l-.019.099c-.041.217-.08.422-.116.64-.013.089-.054.172-.118.236s-.147.108-.237.124l-2.044.322c-.2.024-.384.118-.518.265s-.209.336-.21.533v.899c-.001.197.073.388.207.535s.321.24.522.262l2.043.322c.092.015.176.058.241.123s.106.149.117.24c.039.245.08.499.135.739a.424.424 0 0 1-.209.455l-1.812.984c-.18.09-.32.241-.393.424s-.075.387-.005.572l.318.846c.069.185.206.339.384.433s.385.119.581.073l2.033-.384a.441.441 0 0 1 .463.219c.119.217.247.437.382.654a.427.427 0 0 1-.035.505l-1.353 1.524a.796.796 0 0 0-.04 1.069l.59.692a.83.83 0 0 0 1.081.156l1.78-1.043c.079-.046.171-.066.263-.058s.178.046.246.106c.197.169.398.331.586.481a.416.416 0 0 1 .137.482l-.738 1.895c-.08.181-.09.384-.026.571s.195.345.369.444l.804.454a.831.831 0 0 0 1.07-.219l1.317-1.58c.111-.134.287-.194.416-.143.277.112.462.175.791.282a.427.427 0 0 1 .298.406l-.032 2.023c-.011.198.053.392.178.548s.305.261.504.297l.911.155c.198.034.403-.004.575-.106s.3-.262.36-.45l.676-1.924a.428.428 0 0 1 .426-.283h.776a.437.437 0 0 1 .422.285l.674 1.916c.052.166.158.312.301.415a.85.85 0 0 0 .637.148l.913-.155c.198-.036.377-.14.502-.294s.189-.347.179-.544l-.032-2.032a.428.428 0 0 1 .299-.404c.306-.1.52-.181.709-.252l.048-.018c.247-.083.366.018.435.102l1.333 1.602a.837.837 0 0 0 1.07.219l.801-.453c.175-.099.307-.257.37-.445s.054-.392-.027-.572l-.735-1.89a.423.423 0 0 1 .134-.484c.193-.155.392-.311.589-.483a.435.435 0 0 1 .508-.048l1.782 1.041a.844.844 0 0 0 1.083-.156l.589-.691a.782.782 0 0 0-.03-1.067l-1.357-1.528c-.06-.069-.096-.154-.103-.245s.017-.18.067-.256c.136-.21.266-.433.384-.655.044-.08.113-.144.197-.183s.178-.052.269-.036l2.028.386c.197.046.404.02.582-.073s.315-.247.384-.433l.314-.845c.07-.185.069-.389-.005-.572s-.213-.335-.393-.425l-1.814-.984c-.08-.044-.144-.113-.181-.195s-.047-.174-.026-.262l.019-.099c.041-.217.08-.422.116-.64.013-.089.054-.172.118-.236s.147-.108.237-.124l2.044-.322c.2-.024.385-.118.52-.265s.209-.337.211-.534v-.909zm-22.476 7.3c-.099.168-.238.311-.405.417a1.288 1.288 0 0 1-1.138.116 1.272 1.272 0 0 1-.484-.326c-1.793-1.934-2.783-4.451-2.776-7.06s1.008-5.121 2.81-7.047a1.28 1.28 0 0 1 1.626-.206c.167.106.305.251.403.42l3.633 6.24a1.209 1.209 0 0 1 0 1.222l-3.668 6.223zm5.925 3.663c-.757 0-1.512-.078-2.253-.233a1.245 1.245 0 0 1-.878-.705 1.208 1.208 0 0 1 .064-1.109l3.66-6.213c.11-.187.269-.343.46-.451s.409-.165.63-.165h7.332c.198 0 .392.045.569.132s.329.213.446.368a1.204 1.204 0 0 1 .186 1.094c-1.392 4.218-5.443 7.281-10.218 7.281zm.597-12.728-3.622-6.223a1.203 1.203 0 0 1 .295-1.561c.153-.122.333-.207.525-.249a10.942 10.942 0 0 1 2.203-.224c4.774 0 8.826 3.063 10.215 7.284a1.207 1.207 0 0 1-.186 1.094c-.117.155-.27.281-.446.368s-.371.132-.569.132h-7.321c-.223 0-.441-.057-.634-.166s-.352-.266-.461-.455z"/></symbol><symbol id="icon-builder" viewBox="0 0 27 32"><path fill="#ffb342" style="fill:var(--color2, #ffb342)" d="M24.183 19.677h2.988V17.1h-8.639c-.157 2.674-2.319 4.795-4.962 4.795S8.765 19.774 8.608 17.1H.529v2.577h2.467c.132.53.305 1.049.512 1.56.236.575.515 1.124.839 1.644l-2.159 2.218 3.4 3.494 2.162-2.222a10.69 10.69 0 0 0 3.486 1.472v3.09h4.814v-3.116a10.86 10.86 0 0 0 1.798-.597 10.54 10.54 0 0 0 1.684-.917l2.124 2.183 3.403-3.497-2.159-2.218a11.276 11.276 0 0 0 1.282-3.094zM22.899 5.889v5.203c0 .353-.281.64-.627.64h-.444a.633.633 0 0 1-.627-.64V4.536a13.083 13.083 0 0 0-4.279-1.899v9.027a.633.633 0 0 1-.627.639h-4.9a.633.633 0 0 1-.627-.639V2.637a13.315 13.315 0 0 0-4.26 1.899v6.556c0 .353-.281.64-.627.64h-.444a.633.633 0 0 1-.627-.64V5.889a13.646 13.646 0 0 0-4.279 9.953h26.642A13.587 13.587 0 0 0 22.9 5.889z"/><path fill="#ffb342" style="fill:var(--color2, #ffb342)" d="M15.667 10.588c0 .298-.21.539-.475.539h-2.684c-.258 0-.474-.241-.474-.538V1.605c0-.298.21-.538.474-.538h2.684c.258 0 .475.241.475.538v8.984z"/></symbol><symbol id="icon-list" viewBox="0 0 26 32"><path fill="none" stroke="#ffb342" style="stroke:var(--color2, #ffb342)" stroke-linejoin="round" stroke-linecap="round" stroke-width="2.37" d="M21.333 13.236v14.218c0 .406-.065.808-.192 1.183s-.312.716-.546 1.003c-.234.287-.512.515-.817.67s-.633.235-.964.235H3.703c-.668 0-1.309-.326-1.781-.905s-.738-1.366-.738-2.186V8.908c0-.82.265-1.606.738-2.186s1.113-.905 1.781-.905h10.545"/><path fill="#ffb342" style="fill:var(--color2, #ffb342)" d="M25.811.418c-.095-.128-.21-.231-.338-.302s-.267-.111-.407-.115c-.141-.004-.281.027-.411.091s-.249.16-.349.282l-.802.979c-.097.119-.152.281-.152.45s.055.33.152.45l.735.9c.048.059.105.107.168.139s.131.049.199.049.136-.017.199-.049.12-.079.169-.139l.782-.954c.395-.484.432-1.273.055-1.78zm-3.928 2.923-11.7 14.333a.76.76 0 0 0-.15.313l-.541 1.978c-.013.054-.014.111-.003.165s.034.104.066.143c.032.04.073.068.117.081s.091.013.134-.003l1.611-.664a.575.575 0 0 0 .255-.184l11.68-14.36c.108-.134.169-.315.169-.503s-.061-.369-.169-.503l-.645-.795c-.109-.134-.258-.209-.412-.209s-.302.075-.412.209z"/></symbol><symbol id="icon-tick" viewBox="0 0 32 32"><path fill="#ffb342" style="fill:var(--color2, #ffb342)" d="M16 32c8.837 0 16-7.163 16-16S24.837 0 16 0 0 7.163 0 16s7.163 16 16 16z"/><path fill="none" stroke="#1c2752" style="stroke:var(--color1, #1c2752)" stroke-linejoin="round" stroke-linecap="round" stroke-width="2" d="m23 11-9.1 11-3.9-4.125"/></symbol><symbol id="icon-marks" viewBox="0 0 43 32"><path fill="#1c2752" style="fill:var(--color1, #1c2752)" d="M35.299 2.597c-2.049.868-3.837 2.187-5.365 3.958s-2.448 3.576-2.76 5.417c-.174.972-.26 1.806-.26 2.5 0 .799.087 1.458.26 1.979 1.632-1.701 3.698-2.552 6.198-2.552s4.531.729 6.094 2.188 2.344 3.472 2.344 6.042c0 2.431-.833 4.41-2.5 5.937-1.632 1.528-3.715 2.292-6.25 2.292-3.472 0-6.007-1.25-7.604-3.75-.729-1.076-1.302-2.396-1.719-3.958a19.299 19.299 0 0 1-.625-4.896c0-3.646.937-6.979 2.812-10s4.67-5.382 8.385-7.083l.99 1.927zm-21.98 0c-2.049.868-3.837 2.187-5.365 3.958s-2.448 3.576-2.76 5.417c-.174.972-.26 1.806-.26 2.5 0 .799.087 1.458.26 1.979 1.632-1.701 3.698-2.552 6.198-2.552s4.531.729 6.094 2.188c1.562 1.458 2.344 3.472 2.344 6.042 0 2.431-.833 4.41-2.5 5.937-1.632 1.528-3.715 2.292-6.25 2.292-3.472 0-6.007-1.25-7.604-3.75-.729-1.076-1.302-2.396-1.719-3.958a19.299 19.299 0 0 1-.625-4.896c0-3.646.938-6.979 2.813-10S8.615 2.372 12.33.671l.99 1.927z"/></symbol><symbol id="icon-bride" viewBox="0 0 101 32"><path fill="#1c2752" style="fill:var(--color1, #1c2752)" opacity=".4" d="M37.899 25.192V7.432h8.187c1.948 0 3.451.411 4.509 1.234s1.587 1.948 1.587 3.376c0 1.058-.319 1.957-.957 2.696-.621.739-1.478 1.234-2.57 1.486v-.403c1.276.218 2.259.705 2.947 1.461.705.739 1.058 1.705 1.058 2.897 0 1.579-.563 2.813-1.688 3.703-1.108.873-2.645 1.31-4.61 1.31h-8.464zm3.753-2.923h4.232c.974 0 1.721-.185 2.242-.554s.781-.957.781-1.763c0-.823-.26-1.411-.781-1.763-.521-.369-1.268-.554-2.242-.554h-4.232v4.635zm0-7.532h3.728c1.024 0 1.78-.185 2.267-.554s.731-.924.731-1.663c0-.722-.244-1.268-.731-1.637s-1.243-.554-2.267-.554h-3.728v4.409zm13.51 10.455v-9.396c0-.554-.017-1.117-.05-1.688a18.69 18.69 0 0 0-.126-1.688h3.653l.428 3.728h-.579c.168-.907.437-1.654.806-2.242.386-.588.856-1.024 1.411-1.31.571-.285 1.218-.428 1.94-.428.319 0 .571.017.756.05.185.017.37.059.554.126l-.025 3.35c-.353-.151-.655-.244-.907-.277a4.48 4.48 0 0 0-.907-.076c-.705 0-1.293.134-1.763.403a2.555 2.555 0 0 0-1.033 1.184c-.218.521-.328 1.15-.328 1.889v6.373h-3.829zm10.383 0V12.42h3.804v12.772h-3.804zm-.152-14.863V6.777h4.081v3.552h-4.081zm12.078 15.14c-1.108 0-2.091-.269-2.947-.806-.84-.537-1.503-1.302-1.99-2.292-.47-.991-.705-2.183-.705-3.577 0-1.377.235-2.561.705-3.552s1.134-1.747 1.99-2.267c.856-.537 1.839-.806 2.947-.806 1.008 0 1.906.244 2.695.731.806.47 1.343 1.108 1.612 1.915h-.328V6.653h3.804v18.541H81.5V22.7h.328c-.269.84-.806 1.512-1.612 2.015s-1.721.756-2.746.756zm1.133-2.872c.874 0 1.579-.311 2.116-.932s.806-1.579.806-2.872-.269-2.242-.806-2.847-1.243-.907-2.116-.907c-.874 0-1.587.302-2.141.907-.537.605-.806 1.553-.806 2.847s.269 2.25.806 2.872c.554.621 1.268.932 2.141.932zm16.194 2.872c-2.217 0-3.947-.596-5.189-1.789s-1.864-2.813-1.864-4.862c0-1.327.26-2.486.781-3.476a5.898 5.898 0 0 1 2.217-2.318c.957-.571 2.074-.857 3.35-.857 1.26 0 2.309.269 3.149.806.856.537 1.494 1.293 1.915 2.267.436.957.655 2.074.655 3.35v.882h-8.943v-1.889h6.172l-.428.353c0-1.058-.219-1.856-.655-2.393-.42-.554-1.033-.831-1.839-.831-.89 0-1.579.328-2.066.982-.47.655-.705 1.595-.705 2.821v.403c0 1.243.302 2.166.907 2.771.622.605 1.511.907 2.67.907.688 0 1.335-.084 1.94-.252a6.098 6.098 0 0 0 1.763-.857l1.058 2.519a7.18 7.18 0 0 1-2.217 1.083 9.078 9.078 0 0 1-2.67.378z"/><path style="fill:var(--color3, #000)" opacity=".2" d="M31.319.681H0V32h31.319V.681z"/></symbol><symbol id="icon-building" viewBox="0 0 113 32"><path fill="#1c2752" style="fill:var(--color1, #1c2752)" opacity=".4" d="M33.226 10.673a101.327 101.327 0 0 0 3.19.059c.643 0 1.26-.007 1.851-.02a70.13 70.13 0 0 1 1.28-.02c1.707 0 2.98.289 3.82.866.853.578 1.28 1.319 1.28 2.225 0 .46-.151.932-.453 1.418-.302.473-.768.899-1.398 1.28-.617.368-1.411.624-2.383.768v.039c1.287.079 2.311.302 3.072.67.775.354 1.333.781 1.674 1.28s.512 1.017.512 1.556c0 .853-.23 1.562-.689 2.127-.446.564-1.096.991-1.95 1.28-.84.276-1.851.414-3.033.414-.315 0-.775-.007-1.378-.02a51.386 51.386 0 0 0-2.166-.039c-.617 0-1.221.007-1.812.02-.591 0-1.063.013-1.418.039v-.394c.407-.026.709-.079.906-.158a.66.66 0 0 0 .414-.473c.079-.236.118-.591.118-1.063V12.76c0-.486-.039-.84-.118-1.063-.066-.236-.203-.394-.414-.473-.197-.092-.499-.144-.906-.158v-.394zm6.144.394c-.473 0-.781.112-.926.335s-.217.676-.217 1.359v9.767c0 .459.033.807.098 1.044.079.236.21.394.394.473s.459.118.827.118c.84 0 1.451-.295 1.831-.886.394-.604.591-1.457.591-2.56 0-1.011-.249-1.792-.748-2.343-.486-.551-1.3-.827-2.442-.827h-1.556V17.212h1.694c.565 0 .998-.144 1.3-.433.302-.302.512-.696.63-1.182a6.917 6.917 0 0 0 .177-1.595c0-.972-.131-1.7-.394-2.186-.249-.499-.67-.748-1.26-.748zm17.339 3.131v8.271c0 .591.085 1.031.256 1.319.184.276.492.414.926.414v.414a12.794 12.794 0 0 0-1.221-.059c-.604 0-1.168.02-1.694.059a9.906 9.906 0 0 0-1.457.217v-1.595c-.315.591-.748 1.017-1.3 1.28-.538.249-1.155.374-1.851.374-.578 0-1.044-.072-1.398-.217-.341-.144-.604-.335-.788-.571-.21-.236-.361-.551-.453-.945-.092-.407-.138-.939-.138-1.595v-5.002c0-.591-.085-1.024-.256-1.3-.171-.289-.479-.433-.926-.433v-.414c.42.039.827.059 1.221.059.604 0 1.168-.02 1.694-.059a14.395 14.395 0 0 0 1.457-.217v8.31c0 .302.033.558.098.768s.177.374.335.492.368.177.63.177c.302 0 .578-.079.827-.236s.453-.374.61-.65c.158-.289.236-.61.236-.965V16.56c0-.591-.085-1.024-.256-1.3-.171-.289-.479-.433-.926-.433v-.414c.42.039.827.059 1.221.059.604 0 1.168-.02 1.694-.059a14.395 14.395 0 0 0 1.457-.217zm4.652-4.923c.617 0 1.096.138 1.438.414.354.276.531.676.531 1.201s-.177.926-.531 1.201c-.342.276-.821.414-1.438.414s-1.103-.138-1.457-.414c-.341-.276-.512-.676-.512-1.201s.171-.926.512-1.201c.354-.276.84-.414 1.457-.414zm1.733 4.923v8.586c0 .551.085.926.256 1.122.183.197.492.295.926.295v.414c-.263-.013-.65-.026-1.162-.039-.512-.026-1.031-.039-1.556-.039s-1.064.013-1.615.039c-.538.013-.945.026-1.221.039v-.414c.433 0 .735-.098.906-.295.184-.197.276-.571.276-1.122v-6.223c0-.591-.085-1.024-.256-1.3-.171-.289-.479-.433-.926-.433v-.414c.42.039.827.059 1.221.059.591 0 1.149-.02 1.674-.059.538-.053 1.03-.125 1.477-.217zm6.286-4.982v13.568c0 .551.086.926.256 1.122.184.197.492.295.926.295v.414c-.249-.013-.63-.026-1.142-.039a31.063 31.063 0 0 0-1.575-.039c-.525 0-1.063.013-1.615.039-.538.013-.945.026-1.221.039v-.414c.433 0 .735-.098.906-.295.184-.197.276-.571.276-1.122V11.559c0-.578-.085-1.004-.256-1.28-.158-.289-.466-.433-.926-.433v-.414c.42.039.827.059 1.221.059.604 0 1.169-.02 1.694-.059a14.352 14.352 0 0 0 1.457-.217zm11.728 0v13.233c0 .591.085 1.031.256 1.319.183.276.492.414.926.414v.414a12.794 12.794 0 0 0-1.221-.059c-.591 0-1.149.02-1.674.059s-1.018.112-1.477.217V11.58c0-.591-.086-1.024-.256-1.3-.158-.289-.466-.433-.926-.433v-.414c.42.039.827.059 1.221.059.604 0 1.168-.02 1.694-.059.525-.053 1.01-.125 1.457-.217zm-5.297 4.923c.577 0 1.076.085 1.497.256.42.158.768.427 1.044.807l-.236.197a1.537 1.537 0 0 0-.63-.492 1.822 1.822 0 0 0-.748-.158c-.63 0-1.122.394-1.477 1.182-.342.775-.512 1.969-.512 3.584 0 1.129.065 2.022.197 2.678.144.643.335 1.096.571 1.359.249.263.525.394.827.394.407 0 .768-.151 1.083-.453.328-.315.498-.729.512-1.241l.059.827c-.236.604-.565 1.057-.985 1.359-.407.302-.932.453-1.575.453-.762 0-1.451-.19-2.068-.571-.604-.381-1.083-.965-1.438-1.753-.342-.801-.512-1.838-.512-3.111 0-1.195.183-2.179.551-2.954.38-.788.899-1.378 1.556-1.772.67-.394 1.431-.591 2.284-.591zm9.896-4.864c.617 0 1.096.138 1.438.414.354.276.532.676.532 1.201s-.177.926-.532 1.201c-.342.276-.82.414-1.438.414s-1.103-.138-1.457-.414c-.342-.276-.512-.676-.512-1.201s.17-.926.512-1.201c.354-.276.84-.414 1.457-.414zm1.733 4.923v8.586c0 .551.086.926.256 1.122.184.197.492.295.926.295v.414c-.263-.013-.65-.026-1.162-.039-.512-.026-1.031-.039-1.556-.039s-1.063.013-1.615.039c-.538.013-.945.026-1.221.039v-.414c.433 0 .735-.098.906-.295.184-.197.276-.571.276-1.122v-6.223c0-.591-.086-1.024-.256-1.3-.17-.289-.479-.433-.926-.433v-.414c.42.039.827.059 1.221.059.591 0 1.149-.02 1.674-.059a14.28 14.28 0 0 0 1.477-.217zm9.536-.059c.577 0 1.037.072 1.378.217.354.144.623.328.807.551.21.249.361.571.453.965.105.394.158.926.158 1.595v5.317c0 .551.085.926.256 1.122.183.197.492.295.926.295v.414a52.474 52.474 0 0 0-1.182-.039 29.529 29.529 0 0 0-3.053 0c-.499.013-.873.026-1.122.039v-.414c.367 0 .623-.098.768-.295s.217-.571.217-1.122v-6.262c0-.302-.033-.558-.098-.768-.066-.223-.177-.387-.335-.492-.158-.118-.381-.177-.67-.177-.302 0-.585.079-.847.236-.25.158-.453.381-.61.67a2.001 2.001 0 0 0-.217.945v5.849c0 .551.072.926.217 1.122s.4.295.768.295v.414a47.62 47.62 0 0 0-1.083-.039 26.189 26.189 0 0 0-1.438-.039c-.538 0-1.077.013-1.615.039-.538.013-.945.026-1.221.039v-.414c.433 0 .735-.098.906-.295.183-.197.276-.571.276-1.122v-6.223c0-.591-.086-1.024-.256-1.3-.171-.289-.479-.433-.926-.433v-.414c.42.039.827.059 1.221.059.591 0 1.148-.02 1.674-.059.538-.053 1.03-.125 1.477-.217v1.595c.315-.604.742-1.031 1.28-1.28.551-.249 1.182-.374 1.89-.374zm8.394 14.179c-.854 0-1.602-.072-2.245-.217-.644-.131-1.142-.335-1.497-.61-.354-.263-.532-.584-.532-.965 0-.394.183-.755.551-1.083.367-.315.932-.564 1.694-.748l.177.315c-.223.223-.381.44-.473.65a1.7 1.7 0 0 0-.138.65c0 .538.242.952.729 1.241s1.155.433 2.009.433c.591 0 1.103-.085 1.536-.256.433-.158.768-.387 1.004-.689s.354-.656.354-1.063c0-.381-.145-.702-.433-.965-.276-.263-.841-.394-1.694-.394h-1.142c-.565 0-1.05-.072-1.457-.217s-.722-.348-.945-.61c-.21-.263-.315-.591-.315-.985 0-.591.23-1.09.689-1.497.459-.42 1.096-.807 1.91-1.162l.177.158a4.09 4.09 0 0 0-.571.414c-.171.158-.256.368-.256.63 0 .42.249.63.748.63h2.028c.788 0 1.483.092 2.087.276.604.171 1.076.459 1.418.866.354.394.532.912.532 1.556 0 .656-.21 1.26-.63 1.812s-1.07.991-1.95 1.319c-.866.341-1.989.512-3.367.512zm.256-7.897c-.788 0-1.49-.112-2.107-.335-.604-.223-1.083-.564-1.438-1.024-.354-.473-.532-1.07-.532-1.792s.177-1.313.532-1.772c.354-.46.833-.801 1.438-1.024.617-.223 1.319-.335 2.107-.335.774 0 1.47.112 2.087.335s1.103.565 1.457 1.024.532 1.05.532 1.772-.177 1.319-.532 1.792c-.354.459-.841.801-1.457 1.024s-1.313.335-2.087.335zm0-.354c.289 0 .518-.203.689-.61.183-.407.276-1.136.276-2.186s-.092-1.772-.276-2.166c-.171-.407-.401-.61-.689-.61-.302 0-.538.204-.709.61-.171.394-.256 1.116-.256 2.166s.085 1.779.256 2.186c.17.407.407.61.709.61zm3.132-4.215-.414-.138c.21-.538.532-.972.965-1.3a2.35 2.35 0 0 1 1.457-.512c.433 0 .754.118.965.354.223.236.335.545.335.926s-.105.676-.315.886a.966.966 0 0 1-.709.295 1.02 1.02 0 0 1-.65-.236c-.197-.171-.309-.42-.335-.748-.026-.341.092-.768.354-1.28l.118.118c-.486.171-.86.381-1.122.63-.25.249-.466.584-.65 1.004z"/><path style="fill:var(--color3, #000)" opacity=".2" d="M0 0v32h32V0H0z"/></symbol><symbol id="icon-construction" viewBox="0 0 99 32"><path fill="#1c2752" style="fill:var(--color1, #1c2752)" opacity=".4" d="M39.311 13.174v-4.36h-1.129c-.467 0-.869.039-1.207.117a1.775 1.775 0 0 0-.831.389c-.216.182-.376.433-.48.753s-.156.722-.156 1.207v11.601c0 .363.035.701.104 1.012.078.303.195.571.35.805.164.225.372.402.623.532.26.13.571.195.934.195.597 0 1.042-.173 1.337-.519.303-.346.454-.843.454-1.492v-2.349h.973v2.362c0 .891-.229 1.592-.688 2.102s-1.142.766-2.05.766c-.545 0-1.012-.091-1.401-.273a2.615 2.615 0 0 1-.934-.727 3.164 3.164 0 0 1-.519-1.09 5.429 5.429 0 0 1-.156-1.324v-11.16c0-.286.004-.575.013-.869.009-.303.043-.593.104-.869a3.36 3.36 0 0 1 .298-.792c.138-.251.329-.467.571-.649a2.91 2.91 0 0 1 .947-.428c.389-.113.861-.169 1.414-.169h2.401v5.23h-.973zm6.839 10.498c0 .381-.048.731-.143 1.051s-.238.597-.428.83c-.19.234-.428.415-.714.545-.277.13-.601.195-.973.195s-.701-.061-.986-.182a1.93 1.93 0 0 1-.701-.48 2.26 2.26 0 0 1-.415-.753 3.106 3.106 0 0 1-.143-.96v-8.993c0-.337.048-.649.143-.934.095-.294.238-.545.428-.753.19-.216.424-.381.701-.493.285-.121.614-.182.986-.182h2.245v11.108zm-3.53.325c0 .398.108.735.324 1.012.225.277.545.415.96.415.407 0 .718-.156.934-.467.225-.32.337-.705.337-1.155V13.434h-1.272c-.415 0-.735.138-.96.415-.216.277-.324.614-.324 1.012v9.136zm9.784 2.037h-.973V15.121c0-.398-.112-.735-.337-1.012-.216-.277-.528-.415-.934-.415h-1.285v12.341h-.973v-13.21h2.258c.363 0 .683.061.96.182.285.113.523.277.714.493.19.208.333.459.428.753.095.286.143.597.143.934v10.849zm1.363-2.998h.973v.973c0 .398.108.735.324 1.012.225.268.545.402.961.402.407 0 .718-.134.934-.402.225-.277.337-.614.337-1.012v-1.635c0-.285-.048-.549-.143-.792a2.897 2.897 0 0 0-.363-.714 4.216 4.216 0 0 0-.52-.662c-.19-.208-.385-.415-.584-.623a29.36 29.36 0 0 1-.714-.74 6.68 6.68 0 0 1-.61-.792 4.591 4.591 0 0 1-.441-.895 3.176 3.176 0 0 1-.156-1.012v-1.207c0-.346.048-.662.143-.947.095-.294.238-.545.428-.753.19-.216.424-.381.701-.493.285-.121.614-.182.986-.182.363 0 .683.061.96.182.286.113.523.277.714.493.19.208.333.459.428.753.095.285.143.601.143.947v1.064h-.973v-1.142c0-.398-.113-.735-.337-1.012-.216-.277-.528-.415-.934-.415-.415 0-.735.138-.961.415-.216.277-.324.614-.324 1.012v1.285c0 .294.048.571.143.83.095.251.216.489.363.714.156.225.329.446.519.662l.597.623c.242.251.476.502.701.753a5.2 5.2 0 0 1 .61.792c.182.277.325.571.428.882.112.303.169.627.169.973v1.544c0 .337-.048.653-.143.947a2.174 2.174 0 0 1-.428.753c-.19.208-.428.372-.714.493a2.38 2.38 0 0 1-.96.182c-.372 0-.701-.061-.986-.182a2.042 2.042 0 0 1-.701-.493 2.14 2.14 0 0 1-.428-.753 3.064 3.064 0 0 1-.143-.947v-.882zm6.112-9.343h-1.077v-.869h1.077v-1.635h.973v1.635h1.778v.869h-1.778v10.303c0 .398.108.735.324 1.012.216.268.532.402.948.402h.428v.882h-.428c-.372 0-.701-.061-.986-.182a2.051 2.051 0 0 1-.701-.493 2.243 2.243 0 0 1-.415-.753 3.064 3.064 0 0 1-.143-.947V13.691zm6.579-.078a1.813 1.813 0 0 0-.467-.052c-.415 0-.735.138-.961.415-.216.277-.324.614-.324 1.012v11.043h-.973V15.068c0-.346.048-.662.143-.947.095-.294.238-.545.428-.753.19-.216.424-.381.701-.493.285-.121.614-.182.986-.182a2.6 2.6 0 0 1 .454.039c.147.017.281.048.402.091l-.389.792zm5.645-.791v10.848c0 .381-.048.731-.143 1.051s-.238.597-.428.83c-.19.234-.428.415-.714.545-.277.13-.601.195-.973.195s-.701-.061-.987-.182a1.918 1.918 0 0 1-.7-.48 2.243 2.243 0 0 1-.415-.753 3.106 3.106 0 0 1-.143-.96V12.823h.973v11.173c0 .398.108.735.324 1.012.225.277.545.415.961.415.406 0 .718-.156.934-.467.225-.32.338-.705.338-1.155V12.823h.973zm2.595 11.134c0 .398.112.735.337 1.012s.545.415.961.415c.406 0 .718-.156.934-.467.225-.32.337-.705.337-1.155l.961-.13c0 .381-.048.731-.143 1.051s-.238.597-.428.831c-.19.234-.428.415-.714.545-.277.13-.601.195-.973.195s-.701-.061-.987-.182a1.93 1.93 0 0 1-.701-.48 2.278 2.278 0 0 1-.415-.753 3.106 3.106 0 0 1-.143-.96v-8.694c0-.337.047-.649.143-.934.095-.294.238-.545.428-.753.19-.216.424-.381.701-.493.286-.121.615-.182.987-.182h2.245v3.685h-.974v-2.816h-1.271c-.415 0-.735.138-.961.415-.216.277-.324.614-.324 1.012v8.837zm5.139-10.265H78.76v-.869h1.077v-1.635h.973v1.635h1.778v.869H80.81v10.303c0 .398.108.735.324 1.012.216.268.532.402.948.402h.428v.882h-.428c-.372 0-.701-.061-.986-.182a2.042 2.042 0 0 1-.701-.493 2.243 2.243 0 0 1-.415-.753 3.064 3.064 0 0 1-.143-.947V13.691zm3.984 12.341v-13.21h.973v13.21h-.973zm-.13-17.687c0-.433.207-.649.623-.649.199 0 .355.056.467.169.121.104.182.264.182.48a.606.606 0 0 1-.169.428c-.104.121-.264.182-.48.182-.199 0-.355-.061-.467-.182a.636.636 0 0 1-.156-.428zm7.462 15.325c0 .381-.048.731-.143 1.051s-.238.597-.428.83c-.19.234-.428.415-.714.545-.277.13-.601.195-.973.195s-.701-.061-.986-.182a1.922 1.922 0 0 1-.701-.48 2.243 2.243 0 0 1-.415-.753 3.106 3.106 0 0 1-.143-.96v-8.993c0-.337.047-.649.143-.934.095-.294.238-.545.428-.753.19-.216.424-.381.701-.493.286-.121.615-.182.987-.182h2.245v11.108zm-3.53.325c0 .398.108.735.324 1.012.225.277.545.415.961.415.407 0 .718-.156.934-.467.225-.32.338-.705.338-1.155V13.434h-1.272c-.415 0-.735.138-.961.415-.216.277-.324.614-.324 1.012v9.136zm9.784 2.037h-.973V15.121c0-.398-.113-.735-.337-1.012-.216-.277-.528-.415-.934-.415h-1.285v12.341h-.973v-13.21h2.258c.363 0 .683.061.961.182.285.113.523.277.713.493.19.208.334.459.428.753.095.286.143.597.143.934v10.849z"/><path style="fill:var(--color3, #000)" opacity=".2" d="M30.373 0H0v30.373h30.373V0z"/></symbol><symbol id="icon-cpmpany" viewBox="0 0 121 32"><path fill="#1c2752" style="fill:var(--color1, #1c2752)" opacity=".4" d="M43.961 21.726c-.233.151-.569.336-1.008.555a8.15 8.15 0 0 1-1.522.535 6.933 6.933 0 0 1-1.893.206c-1.166-.014-2.208-.219-3.127-.617s-1.707-.939-2.366-1.625a7.413 7.413 0 0 1-1.481-2.386 8.057 8.057 0 0 1-.514-2.88c0-1.125.178-2.153.535-3.086a7.371 7.371 0 0 1 1.543-2.448 6.911 6.911 0 0 1 2.325-1.625c.905-.384 1.893-.576 2.962-.576.905 0 1.728.123 2.469.37s1.365.528 1.872.843l-.864 2.016a8.216 8.216 0 0 0-1.481-.782c-.576-.247-1.221-.37-1.934-.37a4.82 4.82 0 0 0-2.592.741 5.632 5.632 0 0 0-1.893 1.995c-.466.837-.699 1.776-.699 2.818 0 1.056.213 2.002.638 2.839.439.837 1.056 1.495 1.851 1.975s1.728.72 2.798.72c.768 0 1.44-.117 2.016-.35.59-.233 1.07-.501 1.44-.802l.926 1.934zm7.948 1.337a4.3 4.3 0 0 1-1.831-.411 3.44 3.44 0 0 1-1.358-1.173l.123-.638v6.151h-2.078V14.114h1.79l.288 2.119-.206-.597a4.722 4.722 0 0 1 1.543-1.234c.631-.329 1.337-.494 2.119-.494.809 0 1.536.192 2.181.576s1.152.926 1.522 1.625c.37.686.555 1.495.555 2.427s-.206 1.742-.617 2.427a4.103 4.103 0 0 1-1.646 1.563c-.699.357-1.495.535-2.386.535zm-.412-1.646c.535 0 1.022-.123 1.461-.37a2.806 2.806 0 0 0 1.07-1.008 2.74 2.74 0 0 0 .411-1.481c0-.562-.123-1.063-.37-1.502s-.583-.782-1.008-1.029a2.772 2.772 0 0 0-1.419-.37c-.713 0-1.317.192-1.81.576-.48.384-.809.891-.987 1.522v1.543c.11.617.411 1.125.905 1.522s1.077.597 1.749.597zm9.436-7.159.185 1.872-.103-.165a3.56 3.56 0 0 1 1.337-1.502c.59-.37 1.262-.555 2.016-.555.713 0 1.31.165 1.79.494s.775.795.885 1.399l-.103.082a3.767 3.767 0 0 1 1.378-1.44 3.383 3.383 0 0 1 1.81-.535c.85 0 1.522.24 2.016.72.494.466.747 1.083.761 1.851v6.377h-2.057v-5.595c-.014-.439-.117-.802-.309-1.09-.178-.288-.507-.446-.987-.473-.494 0-.933.151-1.317.453-.37.302-.665.693-.885 1.173-.206.48-.315.994-.329 1.543v3.991h-2.078v-5.595c-.014-.439-.123-.802-.329-1.09-.192-.288-.528-.446-1.008-.473-.48 0-.912.151-1.296.453a2.99 2.99 0 0 0-.864 1.193 3.87 3.87 0 0 0-.309 1.543v3.97h-2.078V14.26h1.872zm20.366 8.805a4.3 4.3 0 0 1-1.831-.411 3.44 3.44 0 0 1-1.358-1.173l.123-.638v6.151h-2.078V14.114h1.79l.288 2.119-.206-.597a4.722 4.722 0 0 1 1.543-1.234c.631-.329 1.337-.494 2.119-.494.809 0 1.536.192 2.181.576s1.152.926 1.522 1.625c.37.686.555 1.495.555 2.427s-.206 1.742-.617 2.427a4.103 4.103 0 0 1-1.646 1.563c-.699.357-1.495.535-2.386.535zm-.411-1.646c.535 0 1.022-.123 1.461-.37a2.806 2.806 0 0 0 1.07-1.008 2.74 2.74 0 0 0 .411-1.481c0-.562-.123-1.063-.37-1.502s-.583-.782-1.008-1.029a2.772 2.772 0 0 0-1.419-.37c-.713 0-1.317.192-1.81.576-.48.384-.809.891-.987 1.522v1.543c.11.617.411 1.125.905 1.522s1.077.597 1.749.597zm11.163 1.646c-.809 0-1.543-.171-2.201-.514s-1.179-.843-1.563-1.502c-.384-.672-.576-1.502-.576-2.489 0-.96.199-1.783.597-2.469.411-.699.946-1.234 1.605-1.605a4.322 4.322 0 0 1 2.181-.576c.823 0 1.502.171 2.037.514s.946.754 1.234 1.234l-.123.329.206-1.728h1.913v8.599h-2.078v-2.181l.206.514c-.055.11-.171.267-.35.473s-.411.418-.699.638a4.414 4.414 0 0 1-1.049.535 3.742 3.742 0 0 1-1.337.226zm.555-1.708c.686 0 1.262-.178 1.728-.535.48-.37.795-.871.946-1.502v-1.769c-.165-.562-.501-1.029-1.008-1.399-.494-.37-1.07-.555-1.728-.555a2.59 2.59 0 0 0-1.358.37 2.58 2.58 0 0 0-.987 1.008c-.247.425-.37.919-.37 1.481 0 .549.123 1.042.37 1.481.261.439.603.789 1.029 1.049.425.247.885.37 1.378.37zm9.871-7.097.185 1.995-.082-.288a3.264 3.264 0 0 1 1.317-1.481c.617-.37 1.337-.555 2.16-.555.809 0 1.474.24 1.995.72.521.466.789 1.083.802 1.851v6.357h-2.078V17.22c-.014-.439-.144-.795-.391-1.07-.247-.288-.631-.439-1.152-.453-.727 0-1.337.302-1.831.905-.48.603-.72 1.378-.72 2.325v3.929h-2.078v-8.599h1.872zm10.078 12.734 5.657-12.734h1.913l-5.554 12.734h-2.016zm2.14-4.073-4.135-8.661h2.325l3.435 7.611-1.625 1.049z"/><path style="fill:var(--color3, #000)" opacity=".2" d="M28.571 3.429H0V32h28.571V3.429z"/></symbol><symbol id="icon-tick-yellow" viewBox="0 0 32 32"><path fill="none" stroke="#ffb342" style="stroke:var(--color2, #ffb342)" stroke-miterlimit="10" stroke-width="2.526" d="M30.242 15.963c0-7.883-6.396-14.279-14.279-14.279S1.684 8.08 1.684 15.963 8.08 30.242 15.963 30.242s14.279-6.396 14.279-14.279z"/><path fill="none" stroke="#ffb342" style="stroke:var(--color2, #ffb342)" stroke-linejoin="round" stroke-linecap="round" stroke-width="2.526" d="m23.102 10.014-9.995 11.899-4.284-4.76"/></symbol><symbol id="icon-location" viewBox="0 0 22 32"><path fill="none" stroke="#1c2752" style="stroke:var(--color1, #1c2752)" stroke-linejoin="round" stroke-linecap="round" stroke-width="2" d="M11 1C5.479 1 1 5.427 1 10.88c0 6.274 6.667 16.217 9.115 19.652.102.145.235.263.389.344a1.067 1.067 0 0 0 1.383-.344c2.448-3.433 9.115-13.372 9.115-19.652 0-5.453-4.479-9.88-10-9.88z"/><path fill="none" stroke="#1c2752" style="stroke:var(--color1, #1c2752)" stroke-linejoin="round" stroke-linecap="round" stroke-width="2" d="M11 16a4 4 0 1 0 0-8 4 4 0 0 0 0 8z"/></symbol><symbol id="icon-instagram" viewBox="0 0 30 32"><path fill="#1c2752" style="fill:var(--color1, #1c2752)" d="M21.266 3.966c1.657.005 3.246.641 4.418 1.77s1.833 2.658 1.837 4.254v12.046c-.005 1.596-.666 3.126-1.837 4.254s-2.76 1.765-4.418 1.769H8.757c-1.657-.005-3.246-.641-4.418-1.769s-1.833-2.658-1.838-4.254V9.99c.005-1.596.666-3.125 1.838-4.254s2.76-1.765 4.418-1.77h12.509zm0-2.409H8.757C3.941 1.557 0 5.352 0 9.99v12.046c0 4.638 3.941 8.433 8.757 8.433h12.509c4.816 0 8.757-3.795 8.757-8.433V9.99c0-4.638-3.941-8.433-8.757-8.433z"/><path fill="#1c2752" style="fill:var(--color1, #1c2752)" d="M23.143 9.99c-.371 0-.734-.106-1.043-.305s-.549-.481-.691-.811c-.142-.33-.179-.694-.107-1.044s.251-.672.514-.925c.262-.253.597-.425.961-.495s.741-.034 1.084.103c.343.137.636.368.842.666a1.762 1.762 0 0 1-.233 2.283 1.889 1.889 0 0 1-1.328.528zm-8.131 1.204c.99 0 1.957.283 2.78.812s1.464 1.282 1.843 2.163c.379.88.478 1.849.285 2.784s-.67 1.793-1.37 2.467c-.7.674-1.591 1.133-2.562 1.319s-1.977.09-2.891-.274c-.914-.365-1.696-.982-2.246-1.775s-.843-1.724-.843-2.677c.001-1.278.529-2.502 1.467-3.406s2.21-1.412 3.537-1.413zm0-2.409c-1.485 0-2.936.424-4.17 1.218s-2.196 1.923-2.764 3.244c-.568 1.321-.717 2.774-.427 4.176s1.004 2.69 2.054 3.701c1.05 1.011 2.387 1.699 3.843 1.978s2.965.136 4.337-.411c1.372-.547 2.544-1.473 3.369-2.662s1.265-2.586 1.265-4.015c0-1.917-.791-3.755-2.198-5.111s-3.317-2.117-5.307-2.117z"/></symbol><symbol id="icon-home3" viewBox="0 0 32 32"><path d="m32 19-6-6V4h-4v5l-6-6L0 19v1h4v10h10v-6h4v6h10V20h4z"/></symbol><symbol id="icon-office" viewBox="0 0 32 32"><path d="M0 32h16V0H0v32zM10 4h4v4h-4V4zm0 8h4v4h-4v-4zm0 8h4v4h-4v-4zM2 4h4v4H2V4zm0 8h4v4H2v-4zm0 8h4v4H2v-4zm16-10h14v2H18zm0 22h4v-8h6v8h4V14H18z"/></symbol><symbol id="icon-pacman" viewBox="0 0 32 32"><path d="M30.148 5.588A15.964 15.964 0 0 0 18 0C9.163 0 2 7.163 2 16s7.163 16 16 16c4.86 0 9.213-2.167 12.148-5.588L20 16 30.148 5.588zM22 3.769a2.231 2.231 0 1 1 0 4.462 2.231 2.231 0 0 1 0-4.462z"/></symbol><symbol id="icon-library" viewBox="0 0 34 32"><path d="M32 30v-2h-2V16h2v-2h-6v2h2v12h-6V16h2v-2h-6v2h2v12h-6V16h2v-2h-6v2h2v12H6V16h2v-2H2v2h2v12H2v2H0v2h34v-2h-2zM16 0h2l16 10v2H0v-2L16 0z"/></symbol><symbol id="icon-rocket" viewBox="0 0 32 32"><path d="M22 2 12 12H6l-6 8s6.357-1.77 10.065-.94L0 32l13.184-10.255C15.023 25.953 12 32 12 32l8-6v-6l10-10 2-10-10 2z"/></symbol></defs></svg>